<?xml version="1.0" encoding="UTF-8" standalone="no"?>
<!-- Created with Inkscape (http://www.inkscape.org/) -->

<svg
   width="48"
   height="48"
   viewBox="0 0 12.7 12.7"
   version="1.1"
   id="svg5"
   xml:space="preserve"
   inkscape:version="1.2 (dc2aedaf03, 2022-05-15)"
   sodipodi:docname="splash.svg"
   xmlns:inkscape="http://www.inkscape.org/namespaces/inkscape"
   xmlns:sodipodi="http://sodipodi.sourceforge.net/DTD/sodipodi-0.dtd"
   xmlns="http://www.w3.org/2000/svg"
   xmlns:svg="http://www.w3.org/2000/svg"><sodipodi:namedview
     id="namedview7"
     pagecolor="#505050"
     bordercolor="#eeeeee"
     borderopacity="1"
     inkscape:showpageshadow="0"
     inkscape:pageopacity="0"
     inkscape:pagecheckerboard="0"
     inkscape:deskcolor="#505050"
     inkscape:document-units="mm"
     showgrid="false"
     inkscape:zoom="16"
     inkscape:cx="-8.625"
     inkscape:cy="21.0625"
     inkscape:window-width="3840"
     inkscape:window-height="1009"
     inkscape:window-x="-8"
     inkscape:window-y="-8"
     inkscape:window-maximized="1"
     inkscape:current-layer="g8364" /><defs
     id="defs2"><inkscape:path-effect
       effect="bspline"
       id="path-effect437"
       is_visible="true"
       lpeversion="1"
       weight="33.333333"
       steps="2"
       helper_size="0"
       apply_no_weight="true"
       apply_with_weight="true"
       only_selected="false" /></defs><g
     inkscape:label="Layer 1"
     inkscape:groupmode="layer"
     id="layer1"><rect
       style="fill:#4d4d4d;stroke-width:0.265604"
       id="rect68"
       width="12.7"
       height="12.7"
       x="-3.469447e-18"
       y="-6.9388939e-18" /></g><g
     inkscape:groupmode="layer"
     id="layer2"
     inkscape:label="Layer 2"><path
       id="path453"
       style="fill:#008080;stroke:none;stroke-width:0.383831px;stroke-linecap:butt;stroke-linejoin:miter;stroke-opacity:1"
       d="M 8.4521973 0.10800374 C 6.0669718 0.10698946 3.5946126 1.4107666 3.5946126 1.4107666 L 3.6028809 1.4195516 A 5.7820249 5.7820249 0 0 0 0.34209798 5.0064128 A 5.7820249 5.7820249 0 0 0 4.1258464 12.255583 A 5.7820249 5.7820249 0 0 0 10.960571 9.4505859 L 10.979175 9.4707397 C 10.979175 9.4707397 14.172786 3.9798695 11.471134 1.2236979 C 10.670268 0.40666966 9.6005536 0.11847095 8.5085246 0.10852051 C 8.4897553 0.10834948 8.4709786 0.10801173 8.4521973 0.10800374 z M 9.7249878 0.89865316 A 1.3213137 0.70158249 41.523289 0 1 10.860319 1.3921631 A 1.3213137 0.70158249 41.523289 0 1 11.384318 2.7936279 A 1.3213137 0.70158249 41.523289 0 1 9.9301432 2.442745 A 1.3213137 0.70158249 41.523289 0 1 9.4056274 1.0417969 A 1.3213137 0.70158249 41.523289 0 1 9.7249878 0.89865316 z " /><ellipse
       style="fill:#ffffff;stroke:none;stroke-width:0.291696"
       id="path512"
       cx="5.8699069"
       cy="6.7351918"
       rx="5.1917105"
       ry="5.121552" /><g
       id="g8364"
       transform="translate(-10.851147,-1.3096207)"><g
         id="g8563"
         transform="matrix(0.1023666,0,0,0.1023666,31.886688,8.0060333)"><path
           style="fill:#c89d65;stroke-width:0.264583"
           d="m -131.4277,-1.4554585 -1.11287,0.1765194 -0.80536,-0.8053573 -0.80536,-0.8053573 v -0.4047781 -0.4047781 l 0.29381,-0.6448399 0.29381,-0.6448398 0.56609,-0.2932139 0.56608,-0.2932166 4.49792,-1.0650882 4.49792,-1.0650881 0.7276,-0.2903644 0.72761,-0.2903643 -0.004,-0.9600883 -0.004,-0.9600886 -0.59812,-1.056089 -0.59812,-1.056087 -0.40854,-0.07868 -0.40853,-0.07868 -3.94993,2.5606878 -3.94993,2.5606905 -1.10905,0.6794976 -1.10906,0.6795003 -0.45248,1.0034323 -0.45249,1.0034323 h -0.20279 -0.2028 l -1.32135,-1.1244792 -1.32135,-1.1244792 -1.52923,-0.9230095 -1.52922,-0.9230096 -1.69339,-0.5698781 -1.6934,-0.5698781 -0.23009,-0.230087 -0.23008,-0.230087 2.09988,-7.0082751 2.09988,-7.008276 0.007,-1.358849 0.007,-1.35885 -0.73931,-1.41519 -0.7393,-1.415191 -1.24419,-0.769219 -1.24418,-0.76922 -2.31599,-0.02862 -2.31601,-0.02861 -3.79925,0.125284 -3.79925,0.125285 -0.63252,-0.735351 -0.63252,-0.735351 v -0.664099 -0.664098 l 0.28588,-0.534172 0.28588,-0.534172 0.89624,-0.374475 0.89625,-0.374476 4.17569,0.002 4.17568,0.002 1.63191,0.264861 1.6319,0.264861 2.33539,0.67677 2.33539,0.676771 2.17943,1.021313 2.17943,1.021314 1.71643,1.128489 1.71643,1.128489 0.27279,0.782508 0.27278,0.782508 v 0.935316 0.935316 l 0.54462,1.125048 0.54463,1.125048 1.00224,0.905459 1.00223,0.905459 1.16512,0.415929 1.16512,0.415928 0.79375,0.167163 0.79375,0.167162 1.54644,1.637125 1.54644,1.637125 1.58027,2.359141 1.58027,2.359142 0.68034,1.342588 0.68034,1.3425887 0.22416,0.7815951 0.22416,0.781595 -0.28393,1.0544308 -0.28393,1.0544281 -0.77619,0.7250774 -0.7762,0.7250748 -6.01379,1.4639661 -6.0138,1.4639661 -1.11287,0.1765167 z m 7.33058,-20.9558725 -0.39688,0.06632 -1.07002,-0.219352 -1.07002,-0.219352 -1.01467,-0.836378 -1.01467,-0.836378 -0.48919,-1.077051 -0.48918,-1.07705 v -0.926042 -0.926041 l 0.48182,-1.060603 0.48182,-1.060603 0.96411,-0.846493 0.9641,-0.846493 1.08394,-0.291876 1.08395,-0.291877 0.83776,0.177217 0.83775,0.177216 0.98856,0.547078 0.98855,0.547079 0.71061,1.025416 0.71061,1.025416 0.11571,1.395274 0.11571,1.395273 -0.54252,1.063414 -0.54251,1.063414 -0.94648,0.831022 -0.94648,0.831022 -0.72275,0.15205 -0.72276,0.152051 z"
           id="path8460" /><path
           style="fill:#e20411;stroke-width:0.264583"
           d="m -178.86587,27.485104 h -0.39688 l -1.12116,-0.508934 -1.12116,-0.508934 -0.81413,-1.271193 -0.81414,-1.271194 -1.01722,-2.116666 -1.01721,-2.116667 -0.5582,-1.455209 -0.5582,-1.455208 -0.41327,-1.575893 -0.41327,-1.57589 0.18689,-1.863693 0.18688,-1.8636908 0.93874,-0.79375 0.93874,-0.79375 0.78769,-0.79375 0.78769,-0.7937501 0.4835,-1.0583333 0.4835,-1.0583334 0.006,-1.2794906 0.006,-1.279488 -0.43041,-1.63092878 -0.43041,-1.63092612 0.98646,-2.6458334 0.98647,-2.6458334 1.17783,-2.2489584 1.17782,-2.2489587 0.90842,-1.248354 0.90841,-1.248352 0.64342,-0.421579 0.64341,-0.421579 1.03397,-0.01426 1.03396,-0.01426 0.80698,0.4173 0.80697,0.417301 4.15459,4.3525709 4.15458,4.3525706 0.64065,0.868336 0.64063,0.8683387 v 0.5743734 0.5743734 l -0.54837,0.6971401 -0.54837,0.69712416 -0.97298,0.007646 -0.97298,0.007646 -3.8492,-3.99555236 -3.8492,-3.9955524 -1.04559,0.085302 -1.0456,0.085302 -0.72142,1.3229167 -0.72143,1.3229167 -0.005,0.2645834 -0.005,0.2645833 6.15053,3.0972681 6.15053,3.0972708 0.48376,0.3539252 0.48375,0.3539226 -0.25215,2.3696401 -0.25214,2.3696402 0.21368,1.7197917 0.21367,1.7197917 0.17579,0.937623 0.17579,0.93762 -4.1517,0.988769 -4.15171,0.988769 -1.36416,0.683707 -1.36416,0.683707 -2.11667,1.273297 -2.11667,1.273297 -0.89335,0.926221 -0.89336,0.926224 0.16996,0.677141 0.16995,0.67714 0.65533,0.42939 0.65533,0.429387 0.69268,-0.173853 0.69268,-0.17385 2.71537,-2.641851 2.71537,-2.641851 0.11639,1.403516 0.11639,1.403514 0.45328,0.908619 0.45327,0.908616 -2.85131,2.883969 -2.85131,2.883969 -1.05833,0.495041 -1.05834,0.495041 z m 9.80537,-12.952963 h -0.19218 l -0.16919,-0.169196 -0.1692,-0.169196 0.14071,-0.227679 0.14072,-0.227679 h 0.37295 0.37296 l -0.15229,0.396875 -0.1523,0.396875 z m -20.18177,-6.3603563 -0.86839,-0.010356 -0.92605,-0.4011136 -0.92604,-0.4011163 -0.75122,-0.7130071 -0.75123,-0.7130098 -0.4107,-0.7868841 -0.41071,-0.7868867 -0.0197,-1.3650304 -0.0197,-1.3650305 0.78479,-1.26712399 0.78478,-1.26712666 1.1661,-0.61585475 1.16609,-0.6158548 h 1.23969 1.23968 l 1.1661,0.6150187 1.16609,0.61502133 0.59588,0.88014971 0.59587,0.88015236 0.27834,1.0336848 0.27835,1.0336874 -0.40048,1.3776034 -0.40048,1.3776035 -0.87062,0.8426291 -0.87061,0.8426318 -0.98369,0.4102841 -0.98369,0.4102841 -0.86839,-0.010345 z"
           id="path8408" /><path
           style="fill:#292d81;stroke-width:0.264583"
           d="m -144.7898,40.387214 -1.40003,0.103553 -0.84552,-0.531265 -0.84552,-0.531265 -0.46366,-0.707636 -0.46366,-0.707636 -0.11039,-2.308868 -0.11039,-2.308865 0.49353,-0.118126 0.49353,-0.118123 0.7926,0.147833 0.79261,0.147836 -0.0848,0.984633 -0.0848,0.984637 0.30145,1.452094 0.30146,1.452097 0.44829,0.553619 0.4483,0.553622 0.4479,-0.171878 0.44791,-0.171879 0.26316,-0.836499 0.26315,-0.836498 0.1741,-1.240335 0.17409,-1.240338 -0.42445,-0.850834 -0.42446,-0.850836 v -0.0792 -0.07921 l 0.91964,-0.253926 0.91964,-0.253923 0.51392,0.134392 0.51392,0.134393 0.18382,2.206823 0.18383,2.206824 -0.4929,0.99205 -0.49291,0.992052 -0.71663,0.523563 -0.71663,0.523566 z m -9.02577,-0.893776 -2.33407,0.06591 -0.77478,-0.471173 -0.77479,-0.471173 0.005,-0.07003 0.005,-0.07003 0.88369,-3.042708 0.88369,-3.042709 0.50064,0.08965 0.50065,0.08964 1.98437,0.137416 1.98438,0.137417 0.33073,0.268356 0.33073,0.268357 v 0.232185 0.232188 h -1.95131 -1.9513 l -0.16536,0.826823 -0.16537,0.826822 v 0.394661 0.39466 l 0.57086,-0.14928 0.57085,-0.149283 0.88436,0.369506 0.88435,0.369507 v 0.27683 0.276829 l -1.48382,-0.03421 -1.48383,-0.03421 -0.23191,0.366189 -0.23192,0.366191 -0.004,0.198438 -0.004,0.198437 h 1.4259 1.42589 l 0.62463,0.520364 0.62462,0.520364 -0.26458,0.02109 -0.26459,0.02109 -2.33407,0.06591 z m 16.84638,-0.884213 h -0.9921 l 0.28954,-0.289542 0.28954,-0.289541 -1.03405,-2.541389 -1.03406,-2.541392 -0.32272,-0.199448 -0.32271,-0.199451 0.97936,-0.409202 0.97935,-0.409202 h 0.41064 0.41063 l 0.98693,-0.604684 0.98693,-0.604684 0.74005,-0.321358 0.74005,-0.321358 h 0.52503 0.52502 l 0.1481,0.385964 0.14811,0.385964 -0.30931,0.937223 -0.30931,0.93722 -0.93689,1.361993 -0.93688,1.361993 2.00811,-0.181972 2.00812,-0.18197 1.26448,-0.383678 1.26448,-0.383675 0.0661,-0.0029 0.0661,-0.0029 v 0.375296 0.375295 l -0.85989,0.522034 -0.8599,0.522033 -2.77812,0.315825 -2.77813,0.315828 -0.0801,0.0796 -0.0801,0.0796 0.6917,0.544097 0.69171,0.5441 -0.79693,0.412107 -0.79692,0.412107 z m 0.55704,-3.704167 h 0.13349 l 0.79662,-1.389063 0.79662,-1.389062 0.002,-0.330729 0.002,-0.330729 h -0.31813 -0.31814 l -0.87249,0.845653 -0.87249,0.845651 v 0.195458 0.195455 l 0.25804,0.678683 0.25803,0.678683 h 0.13349 z m -26.26582,1.846273 -0.44519,-0.0058 -1.05834,-0.485989 -1.05833,-0.485989 -0.50403,-0.566534 -0.50403,-0.566534 0.43788,-0.483854 0.43789,-0.483854 v -1.632813 -1.632812 h -0.10259 -0.10258 l -1.74966,0.818761 -1.74965,0.818763 0.16634,0.269153 0.16635,0.269153 -0.36463,0.230949 -0.36462,0.23095 -0.48948,0.004 -0.48948,0.0041 -0.8852,-0.885198 -0.8852,-0.885198 1.21023,-3.612719 1.21022,-3.612719 h 0.31677 0.31677 l 0.60947,0.64875 0.60947,0.648751 -0.14912,0.475729 -0.14912,0.475728 -0.67445,1.785938 -0.67444,1.785937 h 0.17475 0.17474 l 2.20385,-1.066725 2.20385,-1.066724 0.46427,0.248468 0.46427,0.248467 0.47729,0.527408 0.4773,0.527407 -0.28182,0.174172 -0.28182,0.174173 v 2.129361 2.129359 l 0.40214,-0.154315 0.40214,-0.154316 1.58224,-1.074476 1.58223,-1.074475 v -0.254725 -0.254725 h 0.73488 0.73488 l 0.60192,0.421598 0.60191,0.4216 -2.51429,1.974445 -2.51428,1.974448 -0.16326,0.514371 -0.16325,0.514371 -0.44519,-0.0058 z m 36.61387,-3.433773 h -0.14969 v -0.534847 -0.534845 l -1.35586,-1.725303 -1.35586,-1.725303 -0.43008,0.376769 -0.43007,0.376772 -0.59532,0.181417 -0.59531,0.181417 v -0.180856 -0.180856 l 1.53257,-1.755203 1.53257,-1.755204 0.45515,-0.723403 0.45516,-0.723405 0.67043,-0.168267 0.67043,-0.168267 0.15142,0.151416 0.15141,0.151416 -0.95748,1.118608 -0.95749,1.11861 v 0.370139 0.370142 l 1.36807,1.5729 1.36806,1.572903 0.61631,0.154683 0.61631,0.154684 v 0.186399 0.186399 l -0.72761,0.67863 -0.7276,0.678632 -0.57792,0.29691 -0.57792,0.296913 z m -23.80537,-2.38125 h -0.94222 l -0.83192,-0.743318 -0.83191,-0.743318 -0.11484,-1.307203 -0.11484,-1.307203 0.35891,-1.718411 0.35891,-1.71841 0.39035,-0.07517 0.39035,-0.07518 0.4914,0.359323 0.49141,0.359323 -0.29809,0.556972 -0.29808,0.556974 v 1.951199 1.951199 l 0.34863,0.476787 0.34864,0.476784 0.43812,-0.438123 0.43813,-0.438121 0.30427,-1.112573 0.30427,-1.112573 0.0464,-1.58637 0.0464,-1.586371 0.46279,-0.08912 0.46278,-0.08912 0.38417,0.318829 0.38416,0.318828 v 1.277495 1.277499 l -0.29805,1.389758 -0.29805,1.389759 -0.73993,0.739931 -0.73993,0.739931 z m 6.73974,-0.264584 h -0.54656 l -0.0356,-0.198437 -0.0356,-0.198438 -0.0356,-0.661458 -0.0356,-0.661458 -0.22723,-1.914777 -0.22723,-1.914773 -0.56146,0.131471 -0.56147,0.131469 -0.39688,-0.287359 -0.39687,-0.287358 0.36613,-0.145998 0.36612,-0.145997 1.73616,-0.873802 1.73615,-0.8738 0.47741,0.2555 0.4774,0.255501 v 0.117604 0.117605 l -1.0616,0.541591 -1.06161,0.541592 0.16319,0.720556 0.16319,0.720558 0.39203,1.581317 0.39204,1.581314 0.24516,0.458097 0.24517,0.458097 -0.51514,0.27569 -0.51514,0.275693 z m -13.33301,-1.33351 -0.57501,-0.01058 -0.79375,-0.41624 -0.79375,-0.41624 -0.45713,-0.565354 -0.45714,-0.565354 -0.006,-0.974963 -0.006,-0.974963 0.28081,-0.744829 0.28081,-0.744828 0.84367,-0.881613 0.84367,-0.88161 0.44361,-0.241787 0.4436,-0.241787 1.19143,0.510707 1.19143,0.510704 0.28319,0.529153 0.2832,0.529154 v 1.353449 1.35345 l -0.38737,0.749094 -0.38738,0.749096 -0.82355,0.692973 -0.82355,0.692975 -0.57502,-0.01058 z m -0.76903,-1.04774 h 0.37923 l 0.87585,-0.875845 0.87584,-0.875842 0.18141,-1.209757 0.18142,-1.209757 -0.0915,-0.465727 -0.0915,-0.465728 -0.45113,-0.284088 -0.45113,-0.284089 -0.69849,0.652603 -0.69849,0.652605 -0.37173,0.714465 -0.37174,0.714465 v 1.291958 1.291961 l 0.17639,0.176387 0.17639,0.176389 z m 19.44707,0.529167 h -0.37944 l 0.11143,-0.330729 0.11143,-0.330729 -1.2573,-2.84711 -1.25731,-2.847113 0.48908,-0.261741 0.48907,-0.261745 h 0.41427 0.41426 v 0.402162 0.402161 l 1.22251,2.44211 1.22251,2.442109 0.2327,0.08819 0.2327,0.0882 v 0.216651 0.216652 l -0.83323,0.290465 -0.83323,0.290467 z m 3.6041,-1.5875 h -0.49986 v -0.384492 -0.38449 l -1.58406,-2.459781 -1.58406,-2.459779 0.44401,-0.330729 0.444,-0.330729 h 0.4786 0.4786 v 0.245573 0.245573 l 1.38906,0.510386 1.38906,0.510387 0.8599,0.163468 0.85989,0.163467 -0.007,-0.191823 -0.007,-0.191823 -1.58909,-1.68289 -1.58909,-1.682893 0.3051,-0.367628 0.30511,-0.367631 h 0.49677 0.49677 v 0.242594 0.242591 l 1.74311,1.675639 1.74311,1.675635 0.50585,0.189913 0.50585,0.18991 v 0.285136 0.285136 l -0.64944,0.64943 -0.64943,0.649433 h -0.49709 -0.4971 l -0.18011,-0.180112 -0.18011,-0.18011 -1.89306,-0.480748 -1.89306,-0.480748 -0.0902,0.09022 -0.0902,0.09022 0.9323,1.220989 0.93229,1.220988 0.45939,0.275659 0.45939,0.275656 -0.62463,0.529207 -0.62462,0.529206 h -0.49985 z m -28.94256,-1.608619 -0.52917,0.01913 -0.82533,-0.503266 -0.82533,-0.503267 -0.25592,-0.752515 -0.25592,-0.752514 0.22195,-0.833015 0.22196,-0.833011 0.97234,-0.853731 0.97235,-0.853731 0.87064,-0.363778 0.87064,-0.363776 h 0.62383 0.62384 l 0.60283,0.641689 0.60284,0.641686 -0.18467,1.342689 -0.18467,1.342686 h -0.47194 -0.47194 l -0.34721,-0.418359 -0.3472,-0.418359 0.31481,-0.504092 0.31481,-0.504093 V 20.621137 20.08838 h -0.34925 -0.34925 l -1.1129,0.952598 -1.1129,0.952598 -0.38993,0.754055 -0.38994,0.754054 v 0.410014 0.410015 h 0.67885 0.67885 l 0.54525,-0.291804 0.54524,-0.291804 0.64877,0.295601 0.64877,0.2956 -0.1029,0.308706 -0.1029,0.308702 -0.91007,0.32883 -0.91007,0.328826 -0.52916,0.01913 z m -4.32879,-4.233103 -0.16913,-0.02088 -0.39688,-0.145082 -0.39687,-0.145079 -0.62045,-0.561636 -0.62045,-0.561636 -0.37174,-0.714465 -0.37174,-0.714465 v -1.600639 -1.60064 h 0.23416 0.23415 l 0.45289,0.691195 0.45289,0.691192 -0.16797,1.120114 -0.16798,1.120114 0.42915,0.356163 0.42915,0.356161 0.44085,-0.28198 0.44084,-0.281982 -0.0618,-0.76101 -0.0618,-0.761008 -0.15994,-1.214586 -0.15995,-1.214586 0.43866,-0.438663 0.43867,-0.438663 0.69323,-0.17399 0.69323,-0.17399 0.92633,0.504322 0.92634,0.504322 0.33237,0.823873 0.33236,0.82387 -0.47993,0.895922 -0.47993,0.895919 -0.42926,0.08498 -0.42926,0.08499 -0.32114,-0.704837 -0.32115,-0.704837 0.60341,-0.455147 0.6034,-0.455147 -0.40475,-0.335912 -0.40475,-0.335912 -0.44737,0.08799 -0.44738,0.08799 -0.27526,0.43714 -0.27526,0.437139 0.37429,1.547236 0.3743,1.547235 -0.0762,0.396875 -0.0762,0.396875 -0.5435,0.463021 -0.54349,0.463021 -0.16912,-0.02088 z m 39.34609,-0.509268 -0.62147,-0.0011 -0.83903,-0.511596 -0.83902,-0.511595 -0.68233,-1.164307 -0.68233,-1.164307 v -0.96284 -0.962843 l 0.66098,-0.433088 0.66098,-0.433089 1.18493,0.177692 1.18494,0.177694 0.16618,0.268883 0.16618,0.268882 -0.58898,0.626941 -0.58898,0.626941 -0.62089,-0.406818 -0.62088,-0.406821 -0.28057,0.09353 -0.28058,0.09352 0.78351,1.235456 0.7835,1.235453 0.48078,0.246795 0.48078,0.246798 0.74611,0.178578 0.74611,0.178578 -0.0846,-0.73729 -0.0847,-0.737222 -0.86725,0.08406 -0.86726,0.08405 0.85051,-1.622541 0.85052,-1.622542 0.47976,-0.256762 0.47977,-0.256762 -0.004,0.472331 -0.004,0.472329 -0.24185,0.382265 -0.24185,0.382265 0.49289,0.692208 0.4929,0.692206 0.17238,0.686821 0.17238,0.686824 -0.27793,0.519321 -0.27794,0.519322 -0.90903,0.431363 -0.90903,0.431364 -0.62147,-0.0011 z m -19.93605,-0.82569 -0.52917,-0.02893 -1.43738,-0.23843 -1.43737,-0.238429 -1.97174,-0.948365 -1.97173,-0.948364 3.80262,-3.809415 3.80262,-3.809413 3.76102,3.754318 3.76104,3.754319 -0.51502,0.360727 -0.51501,0.360728 -1.39057,0.633624 -1.39056,0.633622 -1.7198,0.276471 -1.71979,0.276471 z m -6.65368,-9.455301 -3.73855,3.738549 -0.41257,-0.630888 -0.41257,-0.630889 -0.5315,-1.203063 -0.5315,-1.203063 -0.31491,-1.9068123 -0.3149,-1.9068125 0.27794,-1.6526246 0.27795,-1.6526246 0.55778,-1.4552083 0.55779,-1.4552084 0.46215,-0.59668571 0.46216,-0.5966857 3.69964,3.70673321 3.69964,3.7067332 z m 17.65355,3.667397 h -0.15905 l -3.69707,-3.704166 -3.69708,-3.7041672 3.68283,-3.6898951 3.68283,-3.68989519 0.22126,0.13674461 0.22126,0.13674461 0.65832,1.29912277 0.65831,1.2991253 0.39108,1.6587127 0.39107,1.6587153 0.004,1.3334736 0.004,1.3334735 -0.39896,1.53171 -0.39896,1.5317101 -0.70231,1.434296 -0.70231,1.434295 h -0.15905 z m -7.10075,-14.2177506 -3.64151,3.6345364 -3.70068,-3.71138727 -3.70068,-3.71138723 0.39687,-0.2676578 0.39688,-0.2676552 0.98411,-0.520192 0.98412,-0.5201947 1.51887,-0.3956129 1.51887,-0.3956156 h 1.60861 1.60861 l 1.51525,0.394671 1.51524,0.3946711 1.31847,0.6681179 1.31847,0.6681205 v 0.1975247 0.1975247 z"
           id="path8402" /><path
           style="fill:#0a8c35;stroke-width:0.264583"
           d="m -147.90962,20.576931 -1.19063,-0.03143 -0.66146,-0.110602 -0.66145,-0.110601 -1.61623,-0.523943 -1.61622,-0.523947 -1.27021,-0.805542 -1.27021,-0.805543 4.20629,-4.212468 4.2063,-4.2124687 4.17787,4.1672357 4.17787,4.167232 -0.60042,0.490802 -0.60041,0.490805 -1.29076,0.654076 -1.29077,0.65408 -1.75447,0.371879 -1.75447,0.371878 z m 0.87348,-0.592252 2.9609,-0.4774 2.82935,-1.310147 0.82017,-0.633691 0.0844,-0.0375 -0.067,-0.05769 -3.58028,-3.596949 -3.8024,-3.788781 -3.74006,3.75376 -3.80063,3.804241 0.005,-0.001 0.005,-0.001 3.89443,1.879093 1.27947,0.233388 1.76612,0.294966 -1.7777,0.02237 z m -11.51441,-4.923372 h -0.19628 l -0.80302,-1.389062 -0.80302,-1.389063 -0.4591,-1.455208 -0.45911,-1.4552085 0.0247,-2.6458334 0.0246,-2.6458334 0.61002,-1.5757155 0.61001,-1.57571548 0.68633,-1.13626374 0.68633,-1.13626378 h 0.13742 0.13742 l 4.09464,4.1010418 4.09464,4.1010418 -4.09464,4.1010422 -4.09464,4.101041 z m 3.75208,-4.402225 3.78878,-3.8125003 -3.59646,-3.5423902 -3.68732,-3.73422342 -0.0117,-0.030289 -0.042,0.0403854 -0.85346,1.10418722 -0.38904,0.87197125 -0.42376,1.1135313 -0.33289,0.8914115 -0.27474,1.7151748 -0.27475,1.5839225 0.30184,1.9452602 0.30182,1.8039088 0.59786,1.462998 0.7392,1.39232 0.41106,0.609425 0.12836,0.195479 z m 17.86665,4.321165 -0.26698,0.08266 -4.09651,-4.102918 -4.09652,-4.1029199 4.15893,-4.1589247 4.15892,-4.1589273 0.40356,0.52198323 0.40357,0.5219806 0.76539,1.58750007 0.7654,1.5875 0.29239,1.4020854 0.29238,1.4020853 V 7.081241 8.6001293 l -0.40455,1.5531887 -0.40456,1.553186 -0.85221,1.595541 -0.85222,1.595541 z m 0.0423,-0.81192 0.49631,-1.028738 0.90711,-1.778292 0.4225,-1.7580984 0.34391,-1.2826499 0.0107,-1.6158293 -0.007,-1.0787029 -0.78434,-3.2494173 -0.45141,-0.7898887 -0.84517,-1.78942696 -0.39794,-0.23533347 -0.17581,0.15842404 -3.40943,3.39889449 -3.63155,3.6210115 -0.0707,0.1233455 0.0808,0.1031556 3.71983,3.7314808 3.47751,3.509358 z m -10.74575,-9.6903533 h -0.14826 l -4.16859,-4.17470175 -4.16859,-4.17470445 1.39357,-0.8339693 1.39356,-0.8339667 1.45521,-0.4814332 1.45521,-0.4814332 2.91041,0.016113 2.91042,0.016113 1.38771,0.5532623 1.38771,0.5532597 1.19825,0.7022227 1.19825,0.7022227 -4.0283,4.2185009 -4.0283,4.2185141 z m -0.12187,-0.8522497 0.21085,-0.2120233 3.52005,-3.62145083 3.43928,-3.38923227 0.0373,-0.2666869 -0.17475,-0.2061062 -2.37023,-1.13179 -1.42116,-0.3442749 -1.66526,-0.4652724 -1.76621,-0.041228 -1.63183,0.033459 -2.79291,0.780588 -0.92114,0.4832949 -1.52693,0.8871513 -0.30601,0.1152391 0.16853,0.1859162 3.47966,3.44981029 3.59072,3.59116181 z m -38.27272,-7.6144172 h -0.69624 l -0.7001,-0.6488245 -0.70009,-0.6488245 v -0.7917259 -0.791726 l 0.88711,-1.9328871 0.88711,-1.9328868 0.94488,-1.556819 0.94489,-1.556817 1.64879,-2.093245 1.64878,-2.093246 1.87704,-1.622268 1.87703,-1.622268 2.11666,-1.375226 2.11667,-1.375226 1.11394,-0.562339 1.11394,-0.562338 0.60585,1.33e-4 0.60585,1.33e-4 1.3919,0.529034 1.3919,0.529033 1.51852,-0.0058 1.51852,-0.0058 1.18555,-0.537762 1.18554,-0.537761 1.13638,-1.220277 1.13637,-1.220276 2.176,-0.498719 2.17599,-0.498718 4.25357,-0.154351 4.25358,-0.154351 0.9283,0.306368 0.92831,0.306367 0.77124,0.805008 0.77125,0.805007 -0.002,1.768564 -0.002,1.768565 -1.79339,5.820833 -1.79339,5.820834 -0.66726,0.595312 -0.66726,0.595313 h -0.65873 -0.65873 l -0.64943,-0.649433 -0.64943,-0.649431 v -0.617117 -0.617116 l 1.32292,-4.478362 1.32291,-4.478361 v -0.986962 -0.986963 l -0.58804,-0.411878 -0.58786,-0.411879 h -1.38703 -1.38702 l -0.23985,0.463021 -0.23985,0.463021 0.36712,7.007916 0.36711,7.0079181 -0.10904,0.2841387 -0.10903,0.2841387 -1.15202,0.3402436 -1.15202,0.3402409 -1.49286,0.7898977 -1.49285,0.7898977 -1.48443,1.323049 -1.48443,1.323049 -0.19772,-0.087953 -0.19771,-0.087953 -2.77813,-2.9122053 -2.77812,-2.9122021 -2.23128,-2.446094 -2.23128,-2.446097 -1.3264,-0.660972 -1.3264,-0.660971 h -1.36164 -1.36165 l -1.16609,0.614534 -1.16609,0.614537 -0.93454,1.231948 -0.93453,1.231948 -2.06091,3.9725727 -2.06092,3.9725734 -0.56915,0.3986503 -0.56916,0.398653 z m 20.39728,-21.9620478 -1.45933,-0.0016 -0.79316,-0.413566 -0.79316,-0.413565 -0.49177,-0.444701 -0.49176,-0.4447 -0.52954,-1.03755 -0.52953,-1.037549 0.10976,-1.517407 0.10976,-1.517406 0.62251,-0.908487 0.6225,-0.908486 0.90849,-0.622506 0.90848,-0.622505 1.51741,-0.109759 1.51741,-0.109759 1.03755,0.529532 1.03755,0.529532 0.43111,0.491174 0.43112,0.491176 0.45697,0.901267 0.45696,0.901267 -0.10624,1.66858 -0.10625,1.668581 -0.78847,0.974176 -0.78846,0.974175 -0.91529,0.490873 -0.91528,0.490873 -1.45934,-0.0016 z"
           id="path8370"
           sodipodi:nodetypes="ccccccccccccccccccccccccccccccccccccccccccccccccccccccccccccccccccccccccccccccccccccccccccccccccccccccccccccccccccccccccccccccccccccccccccccccccccccccccccccccccccccccccccccccccccccccccccccccccccccccccccccccccccccccccccccccccccccccccccccccccccccccccccccccccccccccccc" /><path
           style="fill:#800e00;stroke-width:0.264583"
           d="m -121.50689,27.221785 -0.60586,-0.01035 -0.79385,-0.345977 -0.79385,-0.345977 -0.38491,-0.463783 -0.3849,-0.463783 0.0731,-1.012579 0.0731,-1.012581 -0.58032,-0.310579 -0.58033,-0.310578 -0.72284,0.144568 -0.72284,0.144568 -0.30317,-0.30317 -0.30317,-0.303178 V 22.317505 22.00662 l 0.77884,-0.155765 0.77883,-0.155769 0.86304,-0.771122 0.86303,-0.771121 0.98283,0.650404 0.98283,0.650404 0.60463,-0.08732 0.60464,-0.08732 0.87171,-1.145048 0.87171,-1.145048 v -0.49698 -0.49698 l -2.64583,-1.359072 -2.64584,-1.359072 v -0.48573 -0.48573 l -0.44512,-0.445125 -0.44513,-0.445124 -1.07623,0.144079 -1.07623,0.144076 -2.38125,-1.239205 -2.38125,-1.239208 0.0619,-0.926042 0.0619,-0.9260415 0.0382,-2.9104167 0.0382,-2.9104168 -0.28367,-1.1834521 -0.28367,-1.1834496 0.1106,-0.110609 0.11061,-0.11060645 7.01711,-1.67510888 7.01711,-1.67511157 0.86106,-0.4344723 0.86105,-0.4344749 0.75183,-0.6973994 0.75184,-0.6973993 0.50494,-0.9816465 0.50493,-0.9816466 -0.003,-1.3996035 -0.003,-1.3996036 -0.64383,-1.3828633 -0.64383,-1.382866 -2.26137,-3.455371 -2.26137,-3.455371 -0.14959,-0.59605 -0.1496,-0.596051 0.26789,-0.704604 0.26789,-0.704604 0.84758,-0.438301 0.84758,-0.438302 0.85868,0.409477 0.85869,0.409478 1.20992,1.695551 1.20992,1.69555 1.20452,2.264265 1.20452,2.264264 0.78368,2.318425 0.78367,2.3184248 0.40883,2.138434 0.40883,2.1384313 0.15473,2.9104168 0.15474,2.91041674 -0.29221,1.05833336 -0.2922,1.0583334 -1.69708,1.5130172 -1.69708,1.5130198 -0.42459,1.2460923 -0.42458,1.2460949 v 1.227762 1.2277624 l 0.41765,1.406405 0.41766,1.406406 -0.83572,2.393257 -0.83572,2.393257 -1.18873,2.366905 -1.18873,2.366904 -0.958,1.442847 -0.95799,1.44285 -0.99655,0.508397 -0.99654,0.508399 -0.60585,-0.01034 z m -11.32551,-11.821075 -0.48822,1.090456 -0.17992,-0.716857 -0.17991,-0.716857 0.44003,-0.671578 0.44004,-0.671579 0.62158,-0.283213 0.62158,-0.28321 0.75348,0.274371 0.75349,0.274373 -0.6127,0.02088 -0.61271,0.02088 -0.53427,0.28593 -0.53426,0.28593 -0.48821,1.090459 z m 25.82757,-0.359532 -0.55583,-0.02013 -0.86284,-0.312925 -0.86284,-0.312926 -0.8832,-0.704717 -0.88319,-0.704721 -0.46731,-0.984776 -0.46731,-0.984777 V 9.780761 8.5453208 l 0.53155,-1.04149 0.53154,-1.0414873 0.49117,-0.4311147 0.49118,-0.4311148 0.90126,-0.4569698 0.90127,-0.4569698 1.66858,0.1062487 1.66858,0.1062461 0.98341,0.7959355 0.9834,0.7959354 0.53148,1.024136 0.53148,1.024136 -0.0185,1.2259786 -0.0185,1.2259763 -0.55807,1.093898 -0.55806,1.093899 -0.86234,0.640244 -0.86234,0.640247 -0.89937,0.301125 -0.89938,0.301122 -0.55583,-0.02013 z"
           id="path8366" /></g></g></g></svg>
